<svg class="animated" id="freepik_stories-yacht" xmlns="http://www.w3.org/2000/svg" xmlns:xlink="http://www.w3.org/1999/xlink" viewBox="0 0 500 500" version="1.1" xmlns:svgjs="http://svgjs.com/svgjs"><style>svg#freepik_stories-yacht:not(.animated) .animable {opacity: 0;}svg#freepik_stories-yacht.animated #freepik--background-simple--inject-113 {animation: 1s 1 forwards cubic-bezier(.36,-0.01,.5,1.38) slideLeft;animation-delay: 0s;}svg#freepik_stories-yacht.animated #freepik--Shadow--inject-113 {animation: 1s 1 forwards cubic-bezier(.36,-0.01,.5,1.38) slideDown;animation-delay: 0s;}svg#freepik_stories-yacht.animated #freepik--Island--inject-113 {animation: 1s 1 forwards cubic-bezier(.36,-0.01,.5,1.38) fadeIn;animation-delay: 0s;}svg#freepik_stories-yacht.animated #freepik--Clouds--inject-113 {animation: 1s 1 forwards cubic-bezier(.36,-0.01,.5,1.38) slideRight;animation-delay: 0s;}svg#freepik_stories-yacht.animated #freepik--Yatch--inject-113 {animation: 1s 1 forwards cubic-bezier(.36,-0.01,.5,1.38) fadeIn,1.5s Infinite  linear floating;animation-delay: 0s,1s;}            @keyframes slideLeft {                0% {                    opacity: 0;                    transform: translateX(-30px);                }                100% {                    opacity: 1;                    transform: translateX(0);                }            }                    @keyframes slideDown {                0% {                    opacity: 0;                    transform: translateY(-30px);                }                100% {                    opacity: 1;                    transform: translateY(0);                }            }                    @keyframes fadeIn {                0% {                    opacity: 0;                }                100% {                    opacity: 1;                }            }                    @keyframes slideRight {                0% {                    opacity: 0;                    transform: translateX(30px);                }                100% {                    opacity: 1;                    transform: translateX(0);                }            }                    @keyframes floating {                0% {                    opacity: 1;                    transform: translateY(0px);                }                50% {                    transform: translateY(-10px);                }                100% {                    opacity: 1;                    transform: translateY(0px);                }            }        </style><g id="freepik--background-simple--inject-113" class="animable" style="transform-origin: 249.909px 252.275px;"><path d="M103.42,356.77c62.06,41.35,111.67,35.16,182.28,29.72s117.47-27.75,144.87-70.38c31.63-49.24,6.33-135.48-66.23-148.86-22.68-4.2-47.34-.63-68.61-9.43-40.59-16.8-78.7-49.76-134.61-42.7s-82.35,53.09-82.35,53.09C47.77,228.7,41.35,315.42,103.42,356.77Z" style="fill: rgb(0, 255, 136); transform-origin: 249.909px 252.275px;" id="elpbnpjophr8c" class="animable"></path><g id="el2vryn0c1h67"><path d="M103.42,356.77c62.06,41.35,111.67,35.16,182.28,29.72s117.47-27.75,144.87-70.38c31.63-49.24,6.33-135.48-66.23-148.86-22.68-4.2-47.34-.63-68.61-9.43-40.59-16.8-78.7-49.76-134.61-42.7s-82.35,53.09-82.35,53.09C47.77,228.7,41.35,315.42,103.42,356.77Z" style="fill: rgb(255, 255, 255); opacity: 0.8; isolation: isolate; transform-origin: 249.909px 252.275px;" class="animable"></path></g></g><g id="freepik--Shadow--inject-113" class="animable" style="transform-origin: 249.984px 339.402px;"><path d="M418.16,348.5c-22.1-1.63.82-4.91,21.27-7.36s-72.89-3.28-73.71-13.11,72.07-6.55,73.71-17.19S383.73,287.9,378,287.08s2.46-3.28,19.66-11.46-75.35-13.92-75.35-13.92-58.88-3.23-72.31,3V435.81h-4.25c-1.12,7.58-1.87,9.8,3.7,10.95,10.58,2.16,63.07-2.46,99.1-3.28s-43.41-6.55-59-9.83,38.5-2.46,54.85-6.54-6.55-4.1-13.92-12.32,61.43-13.92,70.44-16.37-18-6.56-25.39-14.75,65.52-11.47,85.17-18.84S440.29,350.12,418.16,348.5Z" style="fill: rgb(0, 255, 136); transform-origin: 355.464px 354.096px;" id="el8maea3simb" class="animable"></path><path d="M148.77,252.34c-9.08-1.51-7.05,1.51-14.62-2.53,0,0-8.06-4.53-15.67-3.53s-11.6,3.53-19.16,4.55-12.1-.51-22.67.5-16.13,2-22.19,3-14.62,2.52-14.62,2.52h122S157.85,253.85,148.77,252.34Z" style="fill: rgb(0, 255, 136); transform-origin: 100.84px 251.493px;" id="el8da57fz8tq8" class="animable"></path><path d="M416.51,235.19c-9.08-1.51-7.07,1.51-14.62-2.52,0,0-8.07-4.53-15.67-3.52s-11.6,3.52-19.16,4.47-12.1-.5-22.68.51-16.13,2-22.18,3-14.62,2.53-14.62,2.53h122S425.57,236.7,416.51,235.19Z" style="fill: rgb(0, 255, 136); transform-origin: 368.58px 234.332px;" id="eldqv2u3rdflv" class="animable"></path><path d="M156.93,391.11c-9.07-1.51-7.05,1.51-14.62-2.53,0,0-8.06-4.54-15.67-3.53s-11.59,3.53-19.16,4.55-12.1-.52-22.67.5-16.13,2-22.19,3-14.55,2.52-14.55,2.52h122S166.05,392.62,156.93,391.11Z" style="fill: rgb(0, 255, 136); transform-origin: 109.07px 390.262px;" id="elxjsbli8wod" class="animable"></path><path d="M134.57,338.52a180.92,180.92,0,0,0-20.78-4c-9.92-1.33-14.16.66-21.27-.67s-10.86-4.64-17.91-6S60,332.54,60,332.54c-7.09,5.31-5.2,1.32-13.69,3.36S34,341.79,34,341.79H148.26S140.24,339.84,134.57,338.52Z" style="fill: rgb(0, 255, 136); transform-origin: 91.13px 334.72px;" id="elyij1qh82957" class="animable"></path><path d="M203,433.57A119.8,119.8,0,0,0,189.32,431c-6.52-.88-9.31.43-14-.44s-7.15-3.06-11.81-3.93-9.62,3.06-9.62,3.06c-4.66,3.49-3.42.87-9,2.18s-8.07,3.93-8.07,3.93h75.05S206.65,434.39,203,433.57Z" style="fill: rgb(0, 255, 136); transform-origin: 174.345px 431.152px;" id="el9m805oayft" class="animable"></path><path d="M252.85,445c-6.53-.88-9.32.43-14-.44s-7.16-3.06-11.81-3.93-9.63,3.06-9.63,3.06c-4.66,3.49-3.36.87-9,2.18s-8.07,3.93-8.07,3.93h75.15s-5.29-1.31-9-2.18A119,119,0,0,0,252.85,445Z" style="fill: rgb(0, 255, 136); transform-origin: 237.915px 445.152px;" id="elfrmr2oq38of" class="animable"></path><path d="M397.32,419.72c-6.51-.88-9.31.43-14-.44s-7.14-3.06-11.8-3.93-9.62,3.06-9.62,3.06c-4.66,3.49-3.42.87-9,2.18s-8.07,3.93-8.07,3.93H420l-9-2.24A119.91,119.91,0,0,0,397.32,419.72Z" style="fill: rgb(0, 255, 136); transform-origin: 382.415px 419.872px;" id="elus4yzeehyt" class="animable"></path><path d="M250,256.87H366.06s-4-3-13.1-4.47-7.06,1.51-14.62-2.53c0,0-8.07-4.54-15.67-3.53s-11.6,3.53-19.15,4.54-12.1-.5-22.69.51-16.13,2-22.18,3c-2.73.45-6,1-8.69,1.48Z" style="fill: rgb(0, 255, 136); transform-origin: 308.01px 251.532px;" id="el4ftb5a0tsev" class="animable"></path><path d="M424.62,253.18c-5,.48-7.64.95-10.51,1.43s-6.92,1.2-6.92,1.2H465a15.29,15.29,0,0,0-6.22-2.15c-4.3-.72-3.36.72-6.93-1.2,0,0-3.81-2.15-7.39-1.67s-5.49,1.67-9.07,2.15S429.66,252.7,424.62,253.18Z" style="fill: rgb(0, 255, 136); transform-origin: 436.095px 253.265px;" id="elqa0r4iijyod" class="animable"></path><path d="M128.67,326.23s-3.81-2.15-7.39-1.68-5.5,1.68-9.08,2.15-5.73-.24-10.75.24-7.63,1-10.5,1.44L84,329.56H141.8a15.3,15.3,0,0,0-6.21-2.15C131.35,326.7,132.26,328.13,128.67,326.23Z" style="fill: rgb(0, 255, 136); transform-origin: 112.9px 327.021px;" id="elbfav031eu7f" class="animable"></path><path d="M136.35,275.74c-4.3-.71-3.35.72-6.91-1.19,0,0-3.83-2.15-7.4-1.67s-5.5,1.67-9.08,2.15-5.73-.25-10.75.23-7.63,1-10.5,1.44-6.93,1.19-6.93,1.19h57.76A15.31,15.31,0,0,0,136.35,275.74Z" style="fill: rgb(0, 255, 136); transform-origin: 113.66px 275.35px;" id="el7m00tj2vcry" class="animable"></path><g id="eldri649s6ls4"><g style="opacity: 0.8; transform-origin: 249.984px 339.402px;" class="animable"><path d="M418.16,348.5c-22.1-1.63.82-4.91,21.27-7.36s-72.89-3.28-73.71-13.11,72.07-6.55,73.71-17.19S383.73,287.9,378,287.08s2.46-3.28,19.66-11.46-75.35-13.92-75.35-13.92-58.88-3.23-72.31,3V435.81h-4.25c-1.12,7.58-1.87,9.8,3.7,10.95,10.58,2.16,63.07-2.46,99.1-3.28s-43.41-6.55-59-9.83,38.5-2.46,54.85-6.54-6.55-4.1-13.92-12.32,61.43-13.92,70.44-16.37-18-6.56-25.39-14.75,65.52-11.47,85.17-18.84S440.29,350.12,418.16,348.5Z" style="fill: rgb(255, 255, 255); transform-origin: 355.464px 354.096px;" id="elfacdhz8c31u" class="animable"></path><path d="M148.77,252.34c-9.08-1.51-7.05,1.51-14.62-2.53,0,0-8.06-4.53-15.67-3.53s-11.6,3.53-19.16,4.55-12.1-.51-22.67.5-16.13,2-22.19,3-14.62,2.52-14.62,2.52h122S157.85,253.85,148.77,252.34Z" style="fill: rgb(255, 255, 255); transform-origin: 100.84px 251.493px;" id="el580y9wnbtyi" class="animable"></path><path d="M416.51,235.19c-9.08-1.51-7.07,1.51-14.62-2.52,0,0-8.07-4.53-15.67-3.52s-11.6,3.52-19.16,4.47-12.1-.5-22.68.51-16.13,2-22.18,3-14.62,2.53-14.62,2.53h122S425.57,236.7,416.51,235.19Z" style="fill: rgb(255, 255, 255); transform-origin: 368.58px 234.332px;" id="ele6oephi6kk5" class="animable"></path><path d="M156.93,391.11c-9.07-1.51-7.05,1.51-14.62-2.53,0,0-8.06-4.54-15.67-3.53s-11.59,3.53-19.16,4.55-12.1-.52-22.67.5-16.13,2-22.19,3-14.55,2.52-14.55,2.52h122S166.05,392.62,156.93,391.11Z" style="fill: rgb(255, 255, 255); transform-origin: 109.07px 390.262px;" id="elg1os2awq3m4" class="animable"></path><path d="M134.57,338.52a180.92,180.92,0,0,0-20.78-4c-9.92-1.33-14.16.66-21.27-.67s-10.86-4.64-17.91-6S60,332.54,60,332.54c-7.09,5.31-5.2,1.32-13.69,3.36S34,341.79,34,341.79H148.26S140.24,339.84,134.57,338.52Z" style="fill: rgb(255, 255, 255); transform-origin: 91.13px 334.72px;" id="elewcpp9tjpot" class="animable"></path><path d="M203,433.57A119.8,119.8,0,0,0,189.32,431c-6.52-.88-9.31.43-14-.44s-7.15-3.06-11.81-3.93-9.62,3.06-9.62,3.06c-4.66,3.49-3.42.87-9,2.18s-8.07,3.93-8.07,3.93h75.05S206.65,434.39,203,433.57Z" style="fill: rgb(255, 255, 255); transform-origin: 174.345px 431.152px;" id="elobs8p9w8pv" class="animable"></path><path d="M252.85,445c-6.53-.88-9.32.43-14-.44s-7.16-3.06-11.81-3.93-9.63,3.06-9.63,3.06c-4.66,3.49-3.36.87-9,2.18s-8.07,3.93-8.07,3.93h75.15s-5.29-1.31-9-2.18A119,119,0,0,0,252.85,445Z" style="fill: rgb(255, 255, 255); transform-origin: 237.915px 445.152px;" id="elhfdcleymbh7" class="animable"></path><path d="M397.32,419.72c-6.51-.88-9.31.43-14-.44s-7.14-3.06-11.8-3.93-9.62,3.06-9.62,3.06c-4.66,3.49-3.42.87-9,2.18s-8.07,3.93-8.07,3.93H420l-9-2.24A119.91,119.91,0,0,0,397.32,419.72Z" style="fill: rgb(255, 255, 255); transform-origin: 382.415px 419.872px;" id="elk05u5g0xd0g" class="animable"></path><path d="M250,256.87H366.06s-4-3-13.1-4.47-7.06,1.51-14.62-2.53c0,0-8.07-4.54-15.67-3.53s-11.6,3.53-19.15,4.54-12.1-.5-22.69.51-16.13,2-22.18,3c-2.73.45-6,1-8.69,1.48Z" style="fill: rgb(255, 255, 255); transform-origin: 308.01px 251.532px;" id="elznuk8td5v89" class="animable"></path><path d="M424.62,253.18c-5,.48-7.64.95-10.51,1.43s-6.92,1.2-6.92,1.2H465a15.29,15.29,0,0,0-6.22-2.15c-4.3-.72-3.36.72-6.93-1.2,0,0-3.81-2.15-7.39-1.67s-5.49,1.67-9.07,2.15S429.66,252.7,424.62,253.18Z" style="fill: rgb(255, 255, 255); transform-origin: 436.095px 253.265px;" id="el8cv2u523vh4" class="animable"></path><path d="M128.67,326.23s-3.81-2.15-7.39-1.68-5.5,1.68-9.08,2.15-5.73-.24-10.75.24-7.63,1-10.5,1.44L84,329.56H141.8a15.3,15.3,0,0,0-6.21-2.15C131.35,326.7,132.26,328.13,128.67,326.23Z" style="fill: rgb(255, 255, 255); transform-origin: 112.9px 327.021px;" id="elpki6m9gc7ss" class="animable"></path><path d="M136.35,275.74c-4.3-.71-3.35.72-6.91-1.19,0,0-3.83-2.15-7.4-1.67s-5.5,1.67-9.08,2.15-5.73-.25-10.75.23-7.63,1-10.5,1.44-6.93,1.19-6.93,1.19h57.76A15.31,15.31,0,0,0,136.35,275.74Z" style="fill: rgb(255, 255, 255); transform-origin: 113.66px 275.35px;" id="elpkpi9sspzcm" class="animable"></path></g></g></g><g id="freepik--Island--inject-113" class="animable" style="transform-origin: 248.12px 193.318px;"><path d="M411.59,216.44a3.62,3.62,0,0,0-.65-1.6l-1.19-1.59a6.32,6.32,0,0,0,2.32.34,11.74,11.74,0,0,1,3.6.84s-1.17-2-2.65-2.14a22.2,22.2,0,0,0-3.46,0,5.79,5.79,0,0,1,1.69-1.08c1.37-.66,1.82-.41,1.82-.41h1.34a2,2,0,0,0-1.89-1.55c-1.49.05-3.22,2.57-3.22,2.57s.63-.84-.33-3.22a5.71,5.71,0,0,0-2.87-3.16,35.47,35.47,0,0,0,1.48,4.24,17.41,17.41,0,0,1,1,2.21,8.45,8.45,0,0,0-1.14-.63c-2.41-5.66-6.63-13.34-12.66-16.43l-1.12-1.5a6.2,6.2,0,0,0,2.3.33,11.74,11.74,0,0,1,3.6.84s-1.16-2-2.65-2.15a24.83,24.83,0,0,0-3.45,0,5.81,5.81,0,0,1,1.7-1.07c1.36-.67,1.8-.41,1.8-.41h1.36a2,2,0,0,0-1.89-1.56c-1.5.05-3.23,2.58-3.23,2.58s.63-.85-.33-3.22a5.63,5.63,0,0,0-2.88-3.16,33.23,33.23,0,0,0,1.48,4.2,18.91,18.91,0,0,1,1,2.21,6.54,6.54,0,0,0-2.95-1.07,7.77,7.77,0,0,0-3,1.34,8,8,0,0,0,3,.9c1.64.14,3.22.17,3.22.17-.26.15-.53.32-.78.5-.32-.07-.64-.14-1-.19-6.32-.9-11.29.23-15.68,1.08a21.38,21.38,0,0,0-3.46-1.79s2.88-.11,5.78-.38a18.79,18.79,0,0,0,5.27-1.32,9.57,9.57,0,0,0-10.54,0,23.66,23.66,0,0,1,1.84-2.9,40,40,0,0,0,2.9-5.54,10.26,10.26,0,0,0-5.27,4.22c-1.85,3.16-.79,4.22-.79,4.22S368,188,365.35,188a3.59,3.59,0,0,0-3.43,2.15h2.37s.8-.36,3.17.44a10.35,10.35,0,0,1,2.92,1.25,56.29,56.29,0,0,0-6.09.15,6.08,6.08,0,0,0-2.54.95c-7.61-5.37-14.31-21.17-34.93-26.33-21.64-5.36-54.75,26-74.84,30.67-19,4.24-61.1-6.93-93.83,1.1a8.53,8.53,0,0,0-2.64-.61,11.75,11.75,0,0,0-4,1.19,18.65,18.65,0,0,1,1.39-2.14,30.1,30.1,0,0,0,2.15-4.19,7.62,7.62,0,0,0-4,3.22c-1.4,2.39-.6,3.22-.6,3.22s-2.15-2.39-4.19-2.39a2.7,2.7,0,0,0-2.59,1.6h1.79s.61-.27,2.4.33a7.65,7.65,0,0,1,2.2.94,44.16,44.16,0,0,0-4.6.12,6.45,6.45,0,0,0-3.64,2.15,22.08,22.08,0,0,1,4.84-1,11.24,11.24,0,0,0,3.1-.41l-.82.79c-4.47,1.49-8.37,2.84-11.81,4.09a5.68,5.68,0,0,1,3.63,2c1.72,1.95,1.41,2.95,1.41,2.95s.78-2.95,2.15-3.51a2,2,0,0,1,2.29.84l-1.24.5s-.51-.1-1.57,1a6,6,0,0,0-1.25,1.55,24.44,24.44,0,0,1,3.23-1.18c1.45-.35,3.22,1.08,3.22,1.08a11.74,11.74,0,0,0-3.68.42,6.35,6.35,0,0,1-2.28.46l1.65,1.07a3.48,3.48,0,0,1,1.14,1.3l1.68,3.08a17.28,17.28,0,0,1-2.67-2,28.5,28.5,0,0,1-2.07-2.58,18.77,18.77,0,0,1-1.41,4,13.11,13.11,0,0,1-1.87,2.51,12.39,12.39,0,0,1,.92-4.54,13.5,13.5,0,0,1,1.69-2.56s-1.54.52-3.14.94a7.8,7.8,0,0,1-3.08.14,7.83,7.83,0,0,1,2.4-2.29,6.75,6.75,0,0,1,3.16,0,19.62,19.62,0,0,0-1.66-1.75,32.1,32.1,0,0,1-2.79-3.45c-6.61,2.41-11.42,4.36-15.2,5.91a6.15,6.15,0,0,0-2-.46,8.64,8.64,0,0,0-3,.89,14.89,14.89,0,0,1,1.07-1.64,22.78,22.78,0,0,0,1.65-3.13,5.7,5.7,0,0,0-3,2.39c-1.07,1.78-.45,2.38-.45,2.38s-1.64-1.79-3.12-1.79a2,2,0,0,0-2,1.19h1.43s.45-.2,1.79.25a5.76,5.76,0,0,1,1.65.71,32.86,32.86,0,0,0-3.44.09,5,5,0,0,0-2.73,1.61,16,16,0,0,1,3.62-.72,8.3,8.3,0,0,0,2.32-.3l-1.23,1.19a2.17,2.17,0,0,0-.36.44,31.44,31.44,0,0,1-8.17,1.85c-9.92.9-25.25,4.51-25.25,4.51H413.42l-1.34-1Zm-292.72-4-1.31.52c-.54-.27-.88-.4-.88-.4s1,0,2.19-.12Zm-2.64.72.21.24-.39.15c.11-.21.18-.39.18-.39Zm17.31,1.19a4.86,4.86,0,0,1-1.77.36l1.28.85a2.82,2.82,0,0,1,.88,1l1.31,2.39a12.56,12.56,0,0,1-2.07-1.55,19.3,19.3,0,0,1-1.61-2,15.13,15.13,0,0,1-1.08,3.07A10.11,10.11,0,0,1,129,220.4a9.7,9.7,0,0,1,.71-3.52,10.38,10.38,0,0,1,1.31-2s-1.2.4-2.42.73a6.26,6.26,0,0,1-2.4.1A6.08,6.08,0,0,1,128.1,214a5.29,5.29,0,0,1,2.44,0,16.46,16.46,0,0,0-1.28-1.36,28.1,28.1,0,0,1-2.15-2.71,4.39,4.39,0,0,1,2.92,1.56c1.33,1.51,1.08,2.3,1.08,2.3s.61-2.29,1.69-2.73a1.57,1.57,0,0,1,1.79.66l-1,.38s-.4-.07-1.22.77a4.65,4.65,0,0,0-1,1.2,19,19,0,0,1,2.52-.91c1.08-.27,2.48.85,2.48.85a9.44,9.44,0,0,0-2.89.36Zm17.61-14.09h.67l-.41.13Zm6.24,13.16a5,5,0,0,1-1.78.37l1.29.85a2.66,2.66,0,0,1,.88,1l1.3,2.39a13.05,13.05,0,0,1-2.07-1.56,22.34,22.34,0,0,1-1.61-2,14.8,14.8,0,0,1-1.07,3.08,10.55,10.55,0,0,1-1.45,1.94,9.45,9.45,0,0,1,.71-3.52,10.46,10.46,0,0,1,1.31-2s-1.2.4-2.44.72a6.21,6.21,0,0,1-2.39.11,6,6,0,0,1,1.87-1.77,5.16,5.16,0,0,1,2.44.05,13.63,13.63,0,0,0-1.27-1.36A24.35,24.35,0,0,1,151,209a4.39,4.39,0,0,1,2.92,1.56c1.32,1.51,1.07,2.29,1.07,2.29s.61-2.29,1.7-2.72a1.57,1.57,0,0,1,1.78.65l-1,.39s-.38-.07-1.21.76a5.16,5.16,0,0,0-1,1.21,17.69,17.69,0,0,1,2.52-.92,3.54,3.54,0,0,1,2.49.85,9.43,9.43,0,0,0-2.9.32Zm235.68-19.32ZM371,193.88s.44.53,1.07,1.21c-.58.07-1.16.11-1.71.14.38-.79.63-1.37.63-1.37Zm-5-.38A15.46,15.46,0,0,0,370,193l-2.2,2.15-.07.07a12.79,12.79,0,0,1-4.39-1.34,14.08,14.08,0,0,1,2.5-.36Zm-16.52,15.4a10.34,10.34,0,0,1,2.92,3.71,13.45,13.45,0,0,1-6.6-4.59,22.93,22.93,0,0,1-1.58,3,18.56,18.56,0,0,1-2.52,2.72l.88-3.33a3.27,3.27,0,0,1,.91-1.55l1.62-1.55a11,11,0,0,1-3,.39,21.11,21.11,0,0,0-4.73,1,6.38,6.38,0,0,1,3.55-2.15,42.15,42.15,0,0,1,4.49-.12,7.65,7.65,0,0,0-2.14-.92c-1.75-.59-2.35-.32-2.35-.32H339a2.63,2.63,0,0,1,2.58-1.5c1.94,0,4.09,2.32,4.09,2.32s-.79-.77.58-3.11a7.55,7.55,0,0,1,3.9-3.11,29.49,29.49,0,0,1-2.15,4.09,17.79,17.79,0,0,0-1.37,2.15,7,7,0,0,1,7.79,0,13.71,13.71,0,0,1-3.89,1c-2.15.2-4.29.28-4.29.28a16.8,16.8,0,0,1,3.12,1.62Zm15.16,4.54a3.57,3.57,0,0,1,.65,1.6l.54,3.46a16.17,16.17,0,0,1-1.83-2.79,26.76,26.76,0,0,1-1.08-3.12,19.35,19.35,0,0,1-2.65,3.27,13,13,0,0,1-2.61,1.74,10.11,10.11,0,0,1,4.85-5.82s-1.64,0-3.28-.17a7.85,7.85,0,0,1-3-.9,7.87,7.87,0,0,1,3-1.35,6.75,6.75,0,0,1,2.94,1.07,18.91,18.91,0,0,0-1-2.21,33.7,33.7,0,0,1-1.49-4.23,5.66,5.66,0,0,1,2.87,3.15c1,2.42.33,3.22.33,3.22s1.74-2.51,3.22-2.57a2,2,0,0,1,1.89,1.57l-1.34,0s-.44-.26-1.82.41a6,6,0,0,0-1.69,1.07,22.2,22.2,0,0,1,3.46,0c1.48.15,2.65,2.15,2.65,2.15a11.74,11.74,0,0,0-3.6-.84,6.52,6.52,0,0,1-2.32-.33Zm24.42-.27a14,14,0,0,1,4,5,24.05,24.05,0,0,1-4.49-2.15,24.33,24.33,0,0,1-4.45-4.09,30.61,30.61,0,0,1-2.15,4.09,25,25,0,0,1-3.43,3.7l1.2-4.51a4.52,4.52,0,0,1,1.23-2.15l2.2-2.15a14.9,14.9,0,0,1-4.1.55,28.26,28.26,0,0,0-6.44,1.27s2.14-2.59,4.82-2.86a56,56,0,0,1,6.08-.15,10.54,10.54,0,0,0-2.91-1.25c-2.38-.79-3.23-.43-3.23-.43H375a3.57,3.57,0,0,1,3.42-2.15c2.64,0,5.54,3.22,5.54,3.22s-1.07-1.07.79-4.22a10.15,10.15,0,0,1,5.28-4.22,39,39,0,0,1-2.91,5.54,24.92,24.92,0,0,0-1.84,2.9,9.55,9.55,0,0,1,10.55,0,18.88,18.88,0,0,1-5.27,1.32c-2.9.26-5.78.38-5.78.38a22,22,0,0,1,4.19,2.33Zm19.8,0-.48.29a.7.7,0,0,0-.12-.3Zm0,1.48.46-.68a26.38,26.38,0,0,0,1.07,3.14,14.07,14.07,0,0,0,1.36,2.14l-1.83-1.37s-.39-1.25-1.11-3.21Z" style="fill: rgb(0, 255, 136); transform-origin: 248.12px 193.318px;" id="elow5b9gfwvds" class="animable"></path><g id="elmdjvf49lh5s"><path d="M411.59,216.44a3.62,3.62,0,0,0-.65-1.6l-1.19-1.59a6.32,6.32,0,0,0,2.32.34,11.74,11.74,0,0,1,3.6.84s-1.17-2-2.65-2.14a22.2,22.2,0,0,0-3.46,0,5.79,5.79,0,0,1,1.69-1.08c1.37-.66,1.82-.41,1.82-.41h1.34a2,2,0,0,0-1.89-1.55c-1.49.05-3.22,2.57-3.22,2.57s.63-.84-.33-3.22a5.71,5.71,0,0,0-2.87-3.16,35.47,35.47,0,0,0,1.48,4.24,17.41,17.41,0,0,1,1,2.21,8.45,8.45,0,0,0-1.14-.63c-2.41-5.66-6.63-13.34-12.66-16.43l-1.12-1.5a6.2,6.2,0,0,0,2.3.33,11.74,11.74,0,0,1,3.6.84s-1.16-2-2.65-2.15a24.83,24.83,0,0,0-3.45,0,5.81,5.81,0,0,1,1.7-1.07c1.36-.67,1.8-.41,1.8-.41h1.36a2,2,0,0,0-1.89-1.56c-1.5.05-3.23,2.58-3.23,2.58s.63-.85-.33-3.22a5.63,5.63,0,0,0-2.88-3.16,33.23,33.23,0,0,0,1.48,4.2,18.91,18.91,0,0,1,1,2.21,6.54,6.54,0,0,0-2.95-1.07,7.77,7.77,0,0,0-3,1.34,8,8,0,0,0,3,.9c1.64.14,3.22.17,3.22.17-.26.15-.53.32-.78.5-.32-.07-.64-.14-1-.19-6.32-.9-11.29.23-15.68,1.08a21.38,21.38,0,0,0-3.46-1.79s2.88-.11,5.78-.38a18.79,18.79,0,0,0,5.27-1.32,9.57,9.57,0,0,0-10.54,0,23.66,23.66,0,0,1,1.84-2.9,40,40,0,0,0,2.9-5.54,10.26,10.26,0,0,0-5.27,4.22c-1.85,3.16-.79,4.22-.79,4.22S368,188,365.35,188a3.59,3.59,0,0,0-3.43,2.15h2.37s.8-.36,3.17.44a10.35,10.35,0,0,1,2.92,1.25,56.29,56.29,0,0,0-6.09.15,6.08,6.08,0,0,0-2.54.95c-7.61-5.37-14.31-21.17-34.93-26.33-21.64-5.36-54.75,26-74.84,30.67-19,4.24-61.1-6.93-93.83,1.1a8.53,8.53,0,0,0-2.64-.61,11.75,11.75,0,0,0-4,1.19,18.65,18.65,0,0,1,1.39-2.14,30.1,30.1,0,0,0,2.15-4.19,7.62,7.62,0,0,0-4,3.22c-1.4,2.39-.6,3.22-.6,3.22s-2.15-2.39-4.19-2.39a2.7,2.7,0,0,0-2.59,1.6h1.79s.61-.27,2.4.33a7.65,7.65,0,0,1,2.2.94,44.16,44.16,0,0,0-4.6.12,6.45,6.45,0,0,0-3.64,2.15,22.08,22.08,0,0,1,4.84-1,11.24,11.24,0,0,0,3.1-.41l-.82.79c-4.47,1.49-8.37,2.84-11.81,4.09a5.68,5.68,0,0,1,3.63,2c1.72,1.95,1.41,2.95,1.41,2.95s.78-2.95,2.15-3.51a2,2,0,0,1,2.29.84l-1.24.5s-.51-.1-1.57,1a6,6,0,0,0-1.25,1.55,24.44,24.44,0,0,1,3.23-1.18c1.45-.35,3.22,1.08,3.22,1.08a11.74,11.74,0,0,0-3.68.42,6.35,6.35,0,0,1-2.28.46l1.65,1.07a3.48,3.48,0,0,1,1.14,1.3l1.68,3.08a17.28,17.28,0,0,1-2.67-2,28.5,28.5,0,0,1-2.07-2.58,18.77,18.77,0,0,1-1.41,4,13.11,13.11,0,0,1-1.87,2.51,12.39,12.39,0,0,1,.92-4.54,13.5,13.5,0,0,1,1.69-2.56s-1.54.52-3.14.94a7.8,7.8,0,0,1-3.08.14,7.83,7.83,0,0,1,2.4-2.29,6.75,6.75,0,0,1,3.16,0,19.62,19.62,0,0,0-1.66-1.75,32.1,32.1,0,0,1-2.79-3.45c-6.61,2.41-11.42,4.36-15.2,5.91a6.15,6.15,0,0,0-2-.46,8.64,8.64,0,0,0-3,.89,14.89,14.89,0,0,1,1.07-1.64,22.78,22.78,0,0,0,1.65-3.13,5.7,5.7,0,0,0-3,2.39c-1.07,1.78-.45,2.38-.45,2.38s-1.64-1.79-3.12-1.79a2,2,0,0,0-2,1.19h1.43s.45-.2,1.79.25a5.76,5.76,0,0,1,1.65.71,32.86,32.86,0,0,0-3.44.09,5,5,0,0,0-2.73,1.61,16,16,0,0,1,3.62-.72,8.3,8.3,0,0,0,2.32-.3l-1.23,1.19a2.17,2.17,0,0,0-.36.44,31.44,31.44,0,0,1-8.17,1.85c-9.92.9-25.25,4.51-25.25,4.51H413.42l-1.34-1Zm-292.72-4-1.31.52c-.54-.27-.88-.4-.88-.4s1,0,2.19-.12Zm-2.64.72.21.24-.39.15c.11-.21.18-.39.18-.39Zm17.31,1.19a4.86,4.86,0,0,1-1.77.36l1.28.85a2.82,2.82,0,0,1,.88,1l1.31,2.39a12.56,12.56,0,0,1-2.07-1.55,19.3,19.3,0,0,1-1.61-2,15.13,15.13,0,0,1-1.08,3.07A10.11,10.11,0,0,1,129,220.4a9.7,9.7,0,0,1,.71-3.52,10.38,10.38,0,0,1,1.31-2s-1.2.4-2.42.73a6.26,6.26,0,0,1-2.4.1A6.08,6.08,0,0,1,128.1,214a5.29,5.29,0,0,1,2.44,0,16.46,16.46,0,0,0-1.28-1.36,28.1,28.1,0,0,1-2.15-2.71,4.39,4.39,0,0,1,2.92,1.56c1.33,1.51,1.08,2.3,1.08,2.3s.61-2.29,1.69-2.73a1.57,1.57,0,0,1,1.79.66l-1,.38s-.4-.07-1.22.77a4.65,4.65,0,0,0-1,1.2,19,19,0,0,1,2.52-.91c1.08-.27,2.48.85,2.48.85a9.44,9.44,0,0,0-2.89.36Zm17.61-14.09h.67l-.41.13Zm6.24,13.16a5,5,0,0,1-1.78.37l1.29.85a2.66,2.66,0,0,1,.88,1l1.3,2.39a13.05,13.05,0,0,1-2.07-1.56,22.34,22.34,0,0,1-1.61-2,14.8,14.8,0,0,1-1.07,3.08,10.55,10.55,0,0,1-1.45,1.94,9.45,9.45,0,0,1,.71-3.52,10.46,10.46,0,0,1,1.31-2s-1.2.4-2.44.72a6.21,6.21,0,0,1-2.39.11,6,6,0,0,1,1.87-1.77,5.16,5.16,0,0,1,2.44.05,13.63,13.63,0,0,0-1.27-1.36A24.35,24.35,0,0,1,151,209a4.39,4.39,0,0,1,2.92,1.56c1.32,1.51,1.07,2.29,1.07,2.29s.61-2.29,1.7-2.72a1.57,1.57,0,0,1,1.78.65l-1,.39s-.38-.07-1.21.76a5.16,5.16,0,0,0-1,1.21,17.69,17.69,0,0,1,2.52-.92,3.54,3.54,0,0,1,2.49.85,9.43,9.43,0,0,0-2.9.32Zm235.68-19.32ZM371,193.88s.44.53,1.07,1.21c-.58.07-1.16.11-1.71.14.38-.79.63-1.37.63-1.37Zm-5-.38A15.46,15.46,0,0,0,370,193l-2.2,2.15-.07.07a12.79,12.79,0,0,1-4.39-1.34,14.08,14.08,0,0,1,2.5-.36Zm-16.52,15.4a10.34,10.34,0,0,1,2.92,3.71,13.45,13.45,0,0,1-6.6-4.59,22.93,22.93,0,0,1-1.58,3,18.56,18.56,0,0,1-2.52,2.72l.88-3.33a3.27,3.27,0,0,1,.91-1.55l1.62-1.55a11,11,0,0,1-3,.39,21.11,21.11,0,0,0-4.73,1,6.38,6.38,0,0,1,3.55-2.15,42.15,42.15,0,0,1,4.49-.12,7.65,7.65,0,0,0-2.14-.92c-1.75-.59-2.35-.32-2.35-.32H339a2.63,2.63,0,0,1,2.58-1.5c1.94,0,4.09,2.32,4.09,2.32s-.79-.77.58-3.11a7.55,7.55,0,0,1,3.9-3.11,29.49,29.49,0,0,1-2.15,4.09,17.79,17.79,0,0,0-1.37,2.15,7,7,0,0,1,7.79,0,13.71,13.71,0,0,1-3.89,1c-2.15.2-4.29.28-4.29.28a16.8,16.8,0,0,1,3.12,1.62Zm15.16,4.54a3.57,3.57,0,0,1,.65,1.6l.54,3.46a16.17,16.17,0,0,1-1.83-2.79,26.76,26.76,0,0,1-1.08-3.12,19.35,19.35,0,0,1-2.65,3.27,13,13,0,0,1-2.61,1.74,10.11,10.11,0,0,1,4.85-5.82s-1.64,0-3.28-.17a7.85,7.85,0,0,1-3-.9,7.87,7.87,0,0,1,3-1.35,6.75,6.75,0,0,1,2.94,1.07,18.91,18.91,0,0,0-1-2.21,33.7,33.7,0,0,1-1.49-4.23,5.66,5.66,0,0,1,2.87,3.15c1,2.42.33,3.22.33,3.22s1.74-2.51,3.22-2.57a2,2,0,0,1,1.89,1.57l-1.34,0s-.44-.26-1.82.41a6,6,0,0,0-1.69,1.07,22.2,22.2,0,0,1,3.46,0c1.48.15,2.65,2.15,2.65,2.15a11.74,11.74,0,0,0-3.6-.84,6.52,6.52,0,0,1-2.32-.33Zm24.42-.27a14,14,0,0,1,4,5,24.05,24.05,0,0,1-4.49-2.15,24.33,24.33,0,0,1-4.45-4.09,30.61,30.61,0,0,1-2.15,4.09,25,25,0,0,1-3.43,3.7l1.2-4.51a4.52,4.52,0,0,1,1.23-2.15l2.2-2.15a14.9,14.9,0,0,1-4.1.55,28.26,28.26,0,0,0-6.44,1.27s2.14-2.59,4.82-2.86a56,56,0,0,1,6.08-.15,10.54,10.54,0,0,0-2.91-1.25c-2.38-.79-3.23-.43-3.23-.43H375a3.57,3.57,0,0,1,3.42-2.15c2.64,0,5.54,3.22,5.54,3.22s-1.07-1.07.79-4.22a10.15,10.15,0,0,1,5.28-4.22,39,39,0,0,1-2.91,5.54,24.92,24.92,0,0,0-1.84,2.9,9.55,9.55,0,0,1,10.55,0,18.88,18.88,0,0,1-5.27,1.32c-2.9.26-5.78.38-5.78.38a22,22,0,0,1,4.19,2.33Zm19.8,0-.48.29a.7.7,0,0,0-.12-.3Zm0,1.48.46-.68a26.38,26.38,0,0,0,1.07,3.14,14.07,14.07,0,0,0,1.36,2.14l-1.83-1.37s-.39-1.25-1.11-3.21Z" style="fill: rgb(255, 255, 255); opacity: 0.4; isolation: isolate; transform-origin: 248.12px 193.318px;" class="animable"></path></g></g><g id="freepik--Clouds--inject-113" class="animable" style="transform-origin: 248.682px 109.627px;"><path d="M412.79,146.18c-3.78-1.84-5.5-.3-6.87-1.84s3.78-5.52-6.53-9.49c0,0-.68-8.57-14.77-8.89s-10.31,8.58-14.09,10.73-4.81-1.23-8.59.91-2.06,6.43-5.15,7.05-7.21-2.76-11-.62-3.79,4-5.5,4-5.16-1.22-7.22,0-4.48,2.76-4.48,2.76h86.93S416.57,148,412.79,146.18Z" style="fill: rgb(0, 255, 136); transform-origin: 372.122px 138.371px;" id="eli1tlssrmt3a" class="animable"></path><path d="M244.18,162.69c-5.32-2.58-7.72-.43-9.66-2.58s5.32-7.75-9.18-13.35c0,0-1-12-20.77-12.48s-14.5,12-19.8,15-6.72-1.73-12.08,1.28-2.9,9.05-7.26,9.91-10.14-3.87-15.45-.86c-3.87,2.24-4.92,4.15-6.14,5.06a2.13,2.13,0,0,1-1.74-.62c-1.12-1.2,3-4.32-5.11-7.43,0,0-.54-6.72-11.56-6.95s-8.07,6.71-11,8.39-3.76-1-6.71.72-1.62,5-4,5.51-5.6-2.15-8.6-.48-3,3.12-4.31,3.12-4-1-5.6,0l-3.5,2.15H248.1S249.5,165.23,244.18,162.69Z" style="fill: rgb(0, 255, 136); transform-origin: 164.988px 151.673px;" id="elxkn3w87vtvb" class="animable"></path><path d="M328,90.46c-7.53-3.66-10.95-.62-13.69-3.66s7.54-11-13-18.92c0,0-1.36-17.08-29.42-17.69s-20.54,17.08-28.08,21.35-9.58-2.44-17.11,1.84-4.11,12.8-10.27,14-14.37-5.48-21.9-1.22-7.52,7.94-10.95,7.94-10.26-2.44-14.37,0-9,5.48-9,5.48H333.5S335.55,94.12,328,90.46Z" style="fill: rgb(0, 255, 136); transform-origin: 246.982px 74.8773px;" id="elierf5ty0ga" class="animable"></path><g id="el74009yrda53"><g style="opacity: 0.6; transform-origin: 248.682px 109.627px;" class="animable"><path d="M412.79,146.18c-3.78-1.84-5.5-.3-6.87-1.84s3.78-5.52-6.53-9.49c0,0-.68-8.57-14.77-8.89s-10.31,8.58-14.09,10.73-4.81-1.23-8.59.91-2.06,6.43-5.15,7.05-7.21-2.76-11-.62-3.79,4-5.5,4-5.16-1.22-7.22,0-4.48,2.76-4.48,2.76h86.93S416.57,148,412.79,146.18Z" style="fill: rgb(255, 255, 255); transform-origin: 372.122px 138.371px;" id="elkjoquk7ncl8" class="animable"></path><g id="elajwsb65sdc"><path d="M244.18,162.69c-5.32-2.58-7.72-.43-9.66-2.58s5.32-7.75-9.18-13.35c0,0-1-12-20.77-12.48s-14.5,12-19.8,15-6.72-1.73-12.08,1.28-2.9,9.05-7.26,9.91-10.14-3.87-15.45-.86c-3.87,2.24-4.92,4.15-6.14,5.06a2.13,2.13,0,0,1-1.74-.62c-1.12-1.2,3-4.32-5.11-7.43,0,0-.54-6.72-11.56-6.95s-8.07,6.71-11,8.39-3.76-1-6.71.72-1.62,5-4,5.51-5.6-2.15-8.6-.48-3,3.12-4.31,3.12-4-1-5.6,0l-3.5,2.15H248.1S249.5,165.23,244.18,162.69Z" style="fill: rgb(255, 255, 255); opacity: 0.7; transform-origin: 164.988px 151.673px;" class="animable"></path></g><path d="M328,90.46c-7.53-3.66-10.95-.62-13.69-3.66s7.54-11-13-18.92c0,0-1.36-17.08-29.42-17.69s-20.54,17.08-28.08,21.35-9.58-2.44-17.11,1.84-4.11,12.8-10.27,14-14.37-5.48-21.9-1.22-7.52,7.94-10.95,7.94-10.26-2.44-14.37,0-9,5.48-9,5.48H333.5S335.55,94.12,328,90.46Z" style="fill: rgb(255, 255, 255); transform-origin: 246.982px 74.8773px;" id="elq7pmq7x11g" class="animable"></path></g></g></g><g id="freepik--Yatch--inject-113" class="animable animator-active" style="transform-origin: 245px 268.04px;"><line x1="432.29" y1="222.25" x2="443.35" y2="222.25" style="fill: none; stroke: rgb(46, 53, 58); stroke-linecap: round; stroke-linejoin: round; stroke-width: 1.11936px; transform-origin: 437.82px 222.25px;" id="el8ken612zmtu" class="animable"></line><line x1="87.88" y1="222.25" x2="423.74" y2="222.25" style="fill: none; stroke: rgb(46, 53, 58); stroke-linecap: round; stroke-linejoin: round; stroke-width: 1.11936px; transform-origin: 255.81px 222.25px;" id="elo5tqa8rcra" class="animable"></line><line x1="65.06" y1="222.25" x2="80.75" y2="222.25" style="fill: none; stroke: rgb(46, 53, 58); stroke-linecap: round; stroke-linejoin: round; stroke-width: 1.11936px; transform-origin: 72.905px 222.25px;" id="el194qp0x5t7x" class="animable"></line><line x1="46.65" y1="222.25" x2="57.21" y2="222.25" style="fill: none; stroke: rgb(46, 53, 58); stroke-linecap: round; stroke-linejoin: round; stroke-width: 1.11936px; transform-origin: 51.93px 222.25px;" id="elgxykyumhmzd" class="animable"></line><path d="M243.29,437.67s-6.22-8.95-21.9-12.67-28.23-3.07-28.23-12.86,6.8-41-6.28-47.14-43.39-12.24-39.18-21.43,15.67-12.24,4.19-22S120,307.46,119.43,298.27s15.17-13.44,25.62-12.85,5.75-8,3.66-13.44,23-4.89,26.14-4.89S238.51,411.19,243.29,437.67Z" style="fill: rgb(255, 255, 255); stroke: rgb(46, 53, 58); stroke-miterlimit: 10; stroke-width: 1.11936px; transform-origin: 181.352px 352.372px;" id="el9zqnvwzj1o" class="animable"></path><path d="M245.4,438.89s6.23-8.95,21.91-12.67,28.23-3.07,28.23-12.86-6.8-41,6.28-47.14S345.2,354,341,344.8s-15.67-12.25-4.18-22,31.89-14.08,32.46-23.26-15.17-13.43-25.62-12.86-5.76-8-3.66-13.44-23-4.9-26.14-4.9S250.17,412.39,245.4,438.89Z" style="fill: rgb(255, 255, 255); stroke: rgb(46, 53, 58); stroke-miterlimit: 10; stroke-width: 1.11936px; transform-origin: 307.348px 353.608px;" id="elihodzil41vs" class="animable"></path><g id="eluotmz3wuqeg"><path d="M245.4,438.89s6.23-8.95,21.91-12.67,28.23-3.07,28.23-12.86-6.8-41,6.28-47.14S345.2,354,341,344.8s-15.67-12.25-4.18-22,31.89-14.08,32.46-23.26-15.17-13.43-25.62-12.86-5.76-8-3.66-13.44-23-4.9-26.14-4.9S250.17,412.39,245.4,438.89Z" style="fill: rgb(0, 255, 136); opacity: 0.6; isolation: isolate; transform-origin: 307.348px 353.608px;" class="animable"></path></g><path d="M195.75,425.81s-18.13.81-20.91-10.61,17.43-18.78,2.78-28.57-47.4-4.89-51.58-18.77,11.2-20.41,11.2-20.41-11.2,11.43.69,16.32,51.58,9,54.38,26.13C194.59,404.21,177.94,416.87,195.75,425.81Z" style="fill: rgb(255, 255, 255); stroke: rgb(46, 53, 58); stroke-miterlimit: 10; stroke-width: 1.11936px; transform-origin: 160.535px 386.636px;" id="elh6rxicwoz1" class="animable"></path><path d="M294,425.81s18.12.81,20.91-10.61-17.42-18.78-2.79-28.57,47.4-4.89,51.59-18.77-11.19-20.41-11.19-20.41,11.19,11.43-.7,16.32-51.58,9-54.37,26.13C295.17,404.21,311.84,416.87,294,425.81Z" style="fill: rgb(255, 255, 255); stroke: rgb(46, 53, 58); stroke-miterlimit: 10; stroke-width: 1.11936px; transform-origin: 329.217px 386.636px;" id="el3byop424e6n" class="animable"></path><g id="el1ools6iemzd"><path d="M294,425.81s18.12.81,20.91-10.61-17.42-18.78-2.79-28.57,47.4-4.89,51.59-18.77-11.19-20.41-11.19-20.41,11.19,11.43-.7,16.32-51.58,9-54.37,26.13C295.17,404.21,311.84,416.87,294,425.81Z" style="fill: rgb(0, 255, 136); opacity: 0.5; isolation: isolate; transform-origin: 329.217px 386.636px;" class="animable"></path></g><path d="M168.68,388a8.13,8.13,0,0,1,3.1,2.24" style="fill: none; stroke: rgb(46, 53, 58); stroke-linecap: round; stroke-linejoin: round; stroke-width: 1.11936px; transform-origin: 170.23px 389.12px;" id="el53q8lso8bl" class="animable"></path><path d="M125,375.37a23,23,0,0,0,7.18,4.12c8,3,22.59,4.32,31.83,6.87" style="fill: none; stroke: rgb(46, 53, 58); stroke-linecap: round; stroke-linejoin: round; stroke-width: 1.11936px; transform-origin: 144.505px 380.865px;" id="elon4znmcv02" class="animable"></path><path d="M120.54,367.85a10,10,0,0,0,1.63,4.24" style="fill: none; stroke: rgb(46, 53, 58); stroke-linecap: round; stroke-linejoin: round; stroke-width: 1.11936px; transform-origin: 121.355px 369.97px;" id="elv92d7gi6ijd" class="animable"></path><path d="M124.36,313.43c7.55,3.19,20.56,8.28,22.39,12.42,2.24,5.08-5,5.66-5,5.66" style="fill: none; stroke: rgb(46, 53, 58); stroke-linecap: round; stroke-linejoin: round; stroke-width: 1.11936px; transform-origin: 135.77px 322.47px;" id="el1ugpndxc4q6" class="animable"></path><path d="M116.93,308.56a14.56,14.56,0,0,0,3,2.57" style="fill: none; stroke: rgb(46, 53, 58); stroke-linecap: round; stroke-linejoin: round; stroke-width: 1.11936px; transform-origin: 118.43px 309.845px;" id="eld7lwbl11xo9" class="animable"></path><path d="M115.23,305.51a4.57,4.57,0,0,0,.3.88" style="fill: none; stroke: rgb(46, 53, 58); stroke-linecap: round; stroke-linejoin: round; stroke-width: 1.11936px; transform-origin: 115.38px 305.95px;" id="el9uzrisak98s" class="animable"></path><path d="M324.42,388a8.1,8.1,0,0,0-3.09,2.24" style="fill: none; stroke: rgb(46, 53, 58); stroke-linecap: round; stroke-linejoin: round; stroke-width: 1.11936px; transform-origin: 322.875px 389.12px;" id="elapz299zlgc6" class="animable"></path><path d="M368.09,375.37a22.9,22.9,0,0,1-7.17,4.12c-8,3-22.59,4.32-31.84,6.87" style="fill: none; stroke: rgb(46, 53, 58); stroke-linecap: round; stroke-linejoin: round; stroke-width: 1.11936px; transform-origin: 348.585px 380.865px;" id="elf3gi9jcq6pw" class="animable"></path><path d="M372.57,367.85a10,10,0,0,1-1.63,4.24" style="fill: none; stroke: rgb(46, 53, 58); stroke-linecap: round; stroke-linejoin: round; stroke-width: 1.11936px; transform-origin: 371.755px 369.97px;" id="el0fh8nk3m6ht" class="animable"></path><path d="M368.74,313.43c-7.54,3.19-20.55,8.28-22.38,12.42-2.24,5.08,5,5.66,5,5.66" style="fill: none; stroke: rgb(46, 53, 58); stroke-linecap: round; stroke-linejoin: round; stroke-width: 1.11936px; transform-origin: 357.335px 322.47px;" id="elpv9c813tne" class="animable"></path><path d="M376.17,308.56a14.51,14.51,0,0,1-3,2.57" style="fill: none; stroke: rgb(46, 53, 58); stroke-linecap: round; stroke-linejoin: round; stroke-width: 1.11936px; transform-origin: 374.67px 309.845px;" id="elx6jodkh4ou" class="animable"></path><path d="M377.88,305.51a4.57,4.57,0,0,1-.3.88" style="fill: none; stroke: rgb(46, 53, 58); stroke-linecap: round; stroke-linejoin: round; stroke-width: 1.11936px; transform-origin: 377.73px 305.95px;" id="elq3ysr6xabqo" class="animable"></path><path d="M321.52,220.52H167.24l-6.72,6.42v47.41a12.32,12.32,0,0,0,1.24,5.36c4.48,9.08,22.39,50.64,33.35,68.14,20.15,32.25,46.58,86.44,48,89.82a1.31,1.31,0,0,0,2.58,0c1.41-3.36,27.9-57.57,48-89.82,10.91-17.5,28.89-59.06,33.36-68.14a12.32,12.32,0,0,0,1.24-5.36V226.94Z" style="fill: rgb(255, 255, 255); stroke: rgb(46, 53, 58); stroke-linecap: round; stroke-linejoin: round; stroke-width: 1.11936px; transform-origin: 244.405px 329.636px;" id="eldfxtlk6ek9h" class="animable"></path><path d="M321.52,220.52H167.24l-6.72,6.42v53.57a12.33,12.33,0,0,0,1.24,5.37c4.48,9.07,22.39,44.47,33.35,62,20.15,32.25,46.58,86.44,48,89.82a1.31,1.31,0,0,0,2.58,0c1.41-3.36,27.9-57.57,48-89.82,10.91-17.5,28.89-52.9,33.36-62a12.33,12.33,0,0,0,1.24-5.37V226.94Z" style="fill: rgb(46, 53, 58); stroke: rgb(46, 53, 58); stroke-linecap: round; stroke-linejoin: round; stroke-width: 1.11936px; transform-origin: 244.405px 329.651px;" id="elh2z51w0cy5l" class="animable"></path><line x1="244.18" y1="299.7" x2="244.18" y2="289.49" style="fill: none; stroke: rgb(255, 255, 255); stroke-linecap: round; stroke-linejoin: round; stroke-width: 1.11936px; transform-origin: 244.18px 294.595px;" id="elmx3grppwcn" class="animable"></line><line x1="244.18" y1="437.65" x2="244.18" y2="317.25" style="fill: none; stroke: rgb(255, 255, 255); stroke-linecap: round; stroke-linejoin: round; stroke-width: 1.11936px; transform-origin: 244.18px 377.45px;" id="elixdc1uct8cd" class="animable"></line><path d="M232.6,339.29a87.88,87.88,0,0,0-36.14-50.93,265.75,265.75,0,0,1-35.34-4.07,11.94,11.94,0,0,0,.63,1.59c4.48,9.07,22.39,44.47,33.35,62,20.15,32.25,46.57,86.44,48,89.82a1.94,1.94,0,0,0,1.3,1.12,1.68,1.68,0,0,1-.56-.26C243.08,419.59,240.44,369.85,232.6,339.29Zm-27.24,11.9c-2.24,1.26-7.54-3.88-11.93-11.5s-6.17-14.82-4-16.08,7.54,3.88,11.93,11.49S207.56,349.93,205.36,351.19Z" style="fill: rgb(0, 255, 136); stroke: rgb(46, 53, 58); stroke-linecap: round; stroke-linejoin: round; stroke-width: 1.11936px; transform-origin: 202.76px 361.555px;" id="elulg17nal5qo" class="animable"></path><path d="M293.19,288.06h0a87.83,87.83,0,0,0-37,51.28c-7.94,30.61-10.6,80.46-11.35,99.34a1.54,1.54,0,0,1-.42.17,1.93,1.93,0,0,0,1.29-1.12c1.41-3.36,27.89-57.57,48-89.82,10.91-17.51,28.89-52.9,33.35-62a12.37,12.37,0,0,0,1-2.84A277.52,277.52,0,0,1,293.19,288.06Zm3.29,51.68c-4.39,7.61-9.73,12.76-11.92,11.49s-.42-8.47,4-16.08,9.73-12.76,11.92-11.5.43,8.42-4,16Z" style="fill: rgb(0, 255, 136); stroke: rgb(46, 53, 58); stroke-linecap: round; stroke-linejoin: round; stroke-width: 1.11936px; transform-origin: 286.24px 360.96px;" id="elchuj5tu7zkg" class="animable"></path><path d="M245.3,220.52H167.24l-6.72,6.42v13.82c19.38,11.28,49.66,18.53,83.72,18.53S308.58,252,328,240.76V226.94l-6.71-6.42Z" style="fill: rgb(255, 255, 255); stroke: rgb(46, 53, 58); stroke-linecap: round; stroke-linejoin: round; stroke-width: 1.11936px; transform-origin: 244.26px 239.905px;" id="elle0tzfuwerm" class="animable"></path><path d="M243.34,116.27a13.2,13.2,0,0,1-8.05-2.49v-9a7.59,7.59,0,0,1,7.57-7.59h0a7.58,7.58,0,0,1,7.58,7.58h0v8.61S250.46,115.68,243.34,116.27Z" style="fill: rgb(255, 255, 255); stroke: rgb(46, 53, 58); stroke-miterlimit: 10; stroke-width: 1.11936px; transform-origin: 242.865px 106.732px;" id="el0rz7904ay0x" class="animable"></path><polygon points="230.3 148.79 236.42 153.07 251.42 153.07 258.46 148.17 254.48 148.17 249.89 151.54 249.89 148.49 236.73 148.49 236.73 151.24 233.06 148.49 230.3 148.79" style="fill: rgb(46, 53, 58); transform-origin: 244.38px 150.62px;" id="elz9hxcb6fb7" class="animable"></polygon><path d="M224.37,149.32a13.05,13.05,0,0,1-8.05-2.47V137.9a7.58,7.58,0,0,1,7.58-7.58h0a7.58,7.58,0,0,1,7.58,7.58h0v8.66S231.48,148.71,224.37,149.32Z" style="fill: rgb(255, 255, 255); stroke: rgb(46, 53, 58); stroke-linecap: round; stroke-linejoin: round; stroke-width: 1.11936px; transform-origin: 223.9px 139.823px;" id="el8ozzh090lpg" class="animable"></path><path d="M262.93,149.32a13.18,13.18,0,0,1-8.05-2.47V137.9a7.59,7.59,0,0,1,7.59-7.58h0a7.58,7.58,0,0,1,7.58,7.58v8.66S270.05,148.71,262.93,149.32Z" style="fill: rgb(255, 255, 255); stroke: rgb(46, 53, 58); stroke-linecap: round; stroke-linejoin: round; stroke-width: 1.11936px; transform-origin: 262.465px 139.822px;" id="elytf8eh5cuns" class="animable"></path><polygon points="246.29 140.6 246.29 135.53 245.02 135.53 245.02 121.53 246.75 121.53 246.75 115.64 245.02 115.64 241.05 115.64 239.32 115.64 239.32 121.53 241.05 121.53 241.05 135.53 239.78 135.53 239.78 140.6 237.43 140.6 237.43 146.48 248.64 146.48 248.64 140.6 246.29 140.6" style="fill: rgb(46, 53, 58); transform-origin: 243.035px 131.06px;" id="elihiogqnztos" class="animable"></polygon><rect x="221.11" y="146.34" width="43.46" height="2.75" style="fill: rgb(255, 255, 255); stroke: rgb(46, 53, 58); stroke-linecap: round; stroke-linejoin: round; stroke-width: 1.11936px; transform-origin: 242.84px 147.715px;" id="elairhwcc4upl" class="animable"></rect><path d="M244.58,236c32.07,0,61.19-3.74,82.61-9.81l-6-5.7h-154l-5.81,5.59C182.91,232.22,212.23,236,244.58,236Z" style="fill: rgb(0, 255, 136); stroke: rgb(46, 53, 58); stroke-linecap: round; stroke-linejoin: round; stroke-width: 1.11936px; transform-origin: 244.285px 228.245px;" id="elywii4cp6ur" class="animable"></path><path d="M326.31,204.91a6,6,0,0,0-6-5.2H166.88a6,6,0,0,0-6,5.2c-.7,4.89-1.64,11.79-1.64,14.07,0,3.68.92,5.21.92,5.21H327s.91-1.53.91-5.21C327.94,216.7,327,209.8,326.31,204.91Z" style="fill: rgb(255, 255, 255); stroke: rgb(46, 53, 58); stroke-linecap: round; stroke-linejoin: round; stroke-width: 1.11936px; transform-origin: 243.575px 211.95px;" id="el7yc6uv8zwlv" class="animable"></path><rect x="202.14" y="152.87" width="81.72" height="3.06" style="fill: rgb(255, 255, 255); stroke: rgb(46, 53, 58); stroke-linecap: round; stroke-linejoin: round; stroke-width: 1.11936px; transform-origin: 243px 154.4px;" id="el36t7sgkqiu1" class="animable"></rect><polygon points="202.14 155.93 201.84 161.13 196.93 167.26 201.52 167.26 289.07 167.26 283.56 160.52 283.86 155.93 202.14 155.93" style="fill: rgb(255, 255, 255); stroke: rgb(46, 53, 58); stroke-linecap: round; stroke-linejoin: round; stroke-width: 1.11936px; transform-origin: 243px 161.595px;" id="elf01ngcbidcn" class="animable"></polygon><polygon points="205.81 155.93 205.54 161.13 201.07 167.26 205.26 167.26 284.93 167.26 279.91 160.52 280.19 155.93 205.81 155.93" style="fill: rgb(0, 255, 136); transform-origin: 243px 161.595px;" id="el4bll4diiwbf" class="animable"></polygon><g style="clip-path: url(&quot;#freepik--clip-path--inject-113&quot;); transform-origin: 243px 161.595px;" id="elrzcq0lun5ug" class="animable"><g id="eljufv7w7cdqh"><polygon points="205.81 155.93 205.54 161.13 201.07 167.26 205.26 167.26 284.93 167.26 279.91 160.52 280.19 155.93 205.81 155.93" style="fill: rgb(255, 255, 255); opacity: 0.5; isolation: isolate; transform-origin: 243px 161.595px;" class="animable"></polygon></g></g><polygon points="205.81 155.93 205.54 161.13 201.07 167.26 205.26 167.26 284.93 167.26 279.91 160.52 280.19 155.93 205.81 155.93" style="fill: none; stroke: rgb(46, 53, 58); stroke-linecap: round; stroke-linejoin: round; stroke-width: 1.11936px; transform-origin: 243px 161.595px;" id="elhw4mwqz3y9j" class="animable"></polygon><path d="M192,166.05H295a3.91,3.91,0,0,1,3.91,3.92v4.65H188.06V170A3.91,3.91,0,0,1,192,166.05Z" style="fill: rgb(255, 255, 255); stroke: rgb(46, 53, 58); stroke-linecap: round; stroke-linejoin: round; stroke-width: 1.11936px; transform-origin: 243.485px 170.335px;" id="elmxvmh1cujs" class="animable"></path><path d="M181.39,171.85H304.31a5.87,5.87,0,0,1,5.88,5.87h0v5.12H175.51V177.7A5.87,5.87,0,0,1,181.39,171.85Z" style="fill: rgb(255, 255, 255); stroke: rgb(46, 53, 58); stroke-linecap: round; stroke-linejoin: round; stroke-width: 1.11936px; transform-origin: 242.85px 177.345px;" id="el0nceoxreahgk" class="animable"></path><path d="M241.93,199.71H203.36l-27.85-16.79a21.25,21.25,0,0,1,11.63-3.07H304.67s4.9-.62,5.51,3.07l-22.65,17.13Z" style="fill: rgb(0, 255, 136); stroke: rgb(46, 53, 58); stroke-linecap: round; stroke-linejoin: round; stroke-width: 1.11936px; transform-origin: 242.845px 189.93px;" id="elhsz4pa3jkzt" class="animable"></path><rect x="191.73" y="181.34" width="103.16" height="20.82" style="fill: rgb(46, 53, 58); stroke: rgb(46, 53, 58); stroke-linecap: round; stroke-linejoin: round; stroke-width: 1.11936px; transform-origin: 243.31px 191.75px;" id="elaaqoyoje19s" class="animable"></rect><rect x="199.69" y="181.34" width="2.75" height="20.82" style="fill: rgb(0, 255, 136); transform-origin: 201.065px 191.75px;" id="eldwjlxdm0ti" class="animable"></rect><rect x="284.18" y="181.34" width="2.75" height="20.82" style="fill: rgb(0, 255, 136); transform-origin: 285.555px 191.75px;" id="elh5ci9av36vn" class="animable"></rect><rect x="267.03" y="181.34" width="4.29" height="20.82" style="fill: rgb(0, 255, 136); transform-origin: 269.175px 191.75px;" id="eltc61e0nz5f" class="animable"></rect><rect x="215.3" y="181.34" width="4.29" height="20.82" style="fill: rgb(0, 255, 136); transform-origin: 217.445px 191.75px;" id="elpjtac8sotbo" class="animable"></rect><rect x="231.22" y="181.34" width="4.9" height="20.82" style="fill: rgb(0, 255, 136); transform-origin: 233.67px 191.75px;" id="elwhtvob6iuqs" class="animable"></rect><rect x="250.51" y="181.34" width="4.9" height="20.82" style="fill: rgb(0, 255, 136); transform-origin: 252.96px 191.75px;" id="eljlpsxpjiegn" class="animable"></rect><rect x="190.81" y="200.93" width="104.38" height="11.63" style="fill: rgb(0, 255, 136); stroke: rgb(46, 53, 58); stroke-linecap: round; stroke-linejoin: round; stroke-width: 1.11936px; transform-origin: 243px 206.745px;" id="elww7ahiz8wzg" class="animable"></rect><rect x="219.38" y="200.93" width="47.24" height="11.63" style="fill: rgb(0, 255, 136); stroke: rgb(46, 53, 58); stroke-linecap: round; stroke-linejoin: round; stroke-width: 1.11936px; transform-origin: 243px 206.745px;" id="el14rva7ytbic" class="animable"></rect><path d="M244.58,236a348.63,348.63,0,0,0,65.92-5.87V223l-15.31-10.41H190.81l-12.55,9.79v7.74A348.85,348.85,0,0,0,244.58,236Z" style="fill: rgb(255, 255, 255); stroke: rgb(46, 53, 58); stroke-linecap: round; stroke-linejoin: round; stroke-width: 1.11936px; transform-origin: 244.38px 224.299px;" id="el38bnfcw2fu6" class="animable"></path><path d="M194.8,202.46v10.07l-4.61,10.08H171.84a18.15,18.15,0,0,1,9.79-9.8,64.81,64.81,0,0,0,11-5.82v-4.9Z" style="fill: rgb(255, 255, 255); stroke: rgb(46, 53, 58); stroke-linecap: round; stroke-linejoin: round; stroke-width: 1.11936px; transform-origin: 183.32px 212.35px;" id="eln4v1kb5pyx8" class="animable"></path><path d="M171.84,222.66s-.92-14.39-.32-20.51,3.69-5.51,3.69-5.51l17.44,5.51" style="fill: none; stroke: rgb(46, 53, 58); stroke-linecap: round; stroke-linejoin: round; stroke-width: 1.11936px; transform-origin: 181.983px 209.642px;" id="elifk5zefks3q" class="animable"></path><line x1="177.34" y1="197.56" x2="177.34" y2="215.31" style="fill: none; stroke: rgb(46, 53, 58); stroke-linecap: round; stroke-linejoin: round; stroke-width: 1.11936px; transform-origin: 177.34px 206.435px;" id="el0ef33t92p8w9" class="animable"></line><line x1="181.63" y1="198.79" x2="181.63" y2="212.87" style="fill: none; stroke: rgb(46, 53, 58); stroke-linecap: round; stroke-linejoin: round; stroke-width: 1.11936px; transform-origin: 181.63px 205.83px;" id="elo03rx50gt9" class="animable"></line><line x1="185" y1="199.71" x2="185" y2="210.72" style="fill: none; stroke: rgb(46, 53, 58); stroke-linecap: round; stroke-linejoin: round; stroke-width: 1.11936px; transform-origin: 185px 205.215px;" id="eljhss2fbjn4c" class="animable"></line><line x1="188.06" y1="200.93" x2="188.06" y2="209.67" style="fill: none; stroke: rgb(46, 53, 58); stroke-linecap: round; stroke-linejoin: round; stroke-width: 1.11936px; transform-origin: 188.06px 205.3px;" id="elz539e08guho" class="animable"></line><path d="M291.52,202.46v10.07l4.59,10.08h18.37a18.13,18.13,0,0,0-9.8-9.8,64.81,64.81,0,0,1-11-5.82v-4.9Z" style="fill: rgb(255, 255, 255); stroke: rgb(46, 53, 58); stroke-linecap: round; stroke-linejoin: round; stroke-width: 1.11936px; transform-origin: 303px 212.35px;" id="elhxu48x2putp" class="animable"></path><path d="M293.66,202.15l17.45-5.51s3.07-.62,3.67,5.51-.3,20.51-.3,20.51" style="fill: none; stroke: rgb(46, 53, 58); stroke-linecap: round; stroke-linejoin: round; stroke-width: 1.11936px; transform-origin: 304.323px 209.641px;" id="elagxvceih8oh" class="animable"></path><line x1="308.97" y1="197.56" x2="308.97" y2="215.31" style="fill: none; stroke: rgb(46, 53, 58); stroke-linecap: round; stroke-linejoin: round; stroke-width: 1.11936px; transform-origin: 308.97px 206.435px;" id="elkj3t3lr0lsg" class="animable"></line><line x1="304.68" y1="198.79" x2="304.68" y2="212.87" style="fill: none; stroke: rgb(46, 53, 58); stroke-linecap: round; stroke-linejoin: round; stroke-width: 1.11936px; transform-origin: 304.68px 205.83px;" id="elix9yiib6uxs" class="animable"></line><line x1="301.31" y1="199.71" x2="301.31" y2="210.72" style="fill: none; stroke: rgb(46, 53, 58); stroke-linecap: round; stroke-linejoin: round; stroke-width: 1.11936px; transform-origin: 301.31px 205.215px;" id="elxsmv65e0g6" class="animable"></line><line x1="298.26" y1="200.93" x2="298.26" y2="209.67" style="fill: none; stroke: rgb(46, 53, 58); stroke-linecap: round; stroke-linejoin: round; stroke-width: 1.11936px; transform-origin: 298.26px 205.3px;" id="elj2npp3h5omp" class="animable"></line><path d="M190.19,232.16A366.67,366.67,0,0,0,244.58,236a371.88,371.88,0,0,0,51.23-3.36v-10H190.19Z" style="fill: rgb(0, 255, 136); stroke: rgb(46, 53, 58); stroke-linecap: round; stroke-linejoin: round; stroke-width: 1.11936px; transform-origin: 243px 229.321px;" id="el6kdozrsk1nj" class="animable"></path><path d="M297,166.42v-4.48s0-1.63-3.68-1.63H193.68c-3.72,0-3.68,1.63-3.68,1.63v4.48" style="fill: none; stroke: rgb(46, 53, 58); stroke-linecap: round; stroke-linejoin: round; stroke-width: 1.11936px; transform-origin: 243.5px 163.365px;" id="elfpc2isctpy" class="animable"></path><line x1="208.29" y1="160.31" x2="208.29" y2="165.63" style="fill: none; stroke: rgb(46, 53, 58); stroke-linecap: round; stroke-linejoin: round; stroke-width: 1.11936px; transform-origin: 208.29px 162.97px;" id="el5rqfxku6hiw" class="animable"></line><line x1="231.5" y1="160.31" x2="231.5" y2="165.63" style="fill: none; stroke: rgb(46, 53, 58); stroke-linecap: round; stroke-linejoin: round; stroke-width: 1.11936px; transform-origin: 231.5px 162.97px;" id="el6curlv5qv9a" class="animable"></line><line x1="254.69" y1="160.31" x2="254.69" y2="165.63" style="fill: none; stroke: rgb(46, 53, 58); stroke-linecap: round; stroke-linejoin: round; stroke-width: 1.11936px; transform-origin: 254.69px 162.97px;" id="elqkeecafb0ll" class="animable"></line><line x1="277.9" y1="160.31" x2="277.9" y2="165.63" style="fill: none; stroke: rgb(46, 53, 58); stroke-linecap: round; stroke-linejoin: round; stroke-width: 1.11936px; transform-origin: 277.9px 162.97px;" id="el0v9v8dwg85j" class="animable"></line></g><defs>     <filter id="active" height="200%">         <feMorphology in="SourceAlpha" result="DILATED" operator="dilate" radius="2"></feMorphology>                <feFlood flood-color="#32DFEC" flood-opacity="1" result="PINK"></feFlood>        <feComposite in="PINK" in2="DILATED" operator="in" result="OUTLINE"></feComposite>        <feMerge>            <feMergeNode in="OUTLINE"></feMergeNode>            <feMergeNode in="SourceGraphic"></feMergeNode>        </feMerge>    </filter>    <filter id="hover" height="200%">        <feMorphology in="SourceAlpha" result="DILATED" operator="dilate" radius="2"></feMorphology>                <feFlood flood-color="#ff0000" flood-opacity="0.5" result="PINK"></feFlood>        <feComposite in="PINK" in2="DILATED" operator="in" result="OUTLINE"></feComposite>        <feMerge>            <feMergeNode in="OUTLINE"></feMergeNode>            <feMergeNode in="SourceGraphic"></feMergeNode>        </feMerge>            <feColorMatrix type="matrix" values="0   0   0   0   0                0   1   0   0   0                0   0   0   0   0                0   0   0   1   0 "></feColorMatrix>    </filter></defs><defs><clipPath id="freepik--clip-path--inject-113"><polygon points="205.81 155.93 205.54 161.13 201.07 167.26 205.26 167.26 284.93 167.26 279.91 160.52 280.19 155.93 205.81 155.93" style="fill:none"></polygon></clipPath></defs></svg>